<?xml version="1.0" encoding="UTF-8"?>
<svg xmlns="http://www.w3.org/2000/svg" xmlns:xlink="http://www.w3.org/1999/xlink" width="130" height="141" viewBox="0 0 130 141"><metadata id="orz-carrier" data-orz-kind="ketcher" data-orz-format="1"><![CDATA[{
    "root": {
        "nodes": [
            {
                "$ref": "mol0"
            }
        ],
        "connections": [],
        "templates": []
    },
    "mol0": {
        "type": "molecule",
        "atoms": [
            {
                "label": "C",
                "location": [
                    13.459849152128568,
                    -8.300074417174608,
                    0
                ]
            },
            {
                "label": "C",
                "location": [
                    15.190150847871434,
                    -8.299589229177204,
                    0
                ]
            },
            {
                "label": "C",
                "location": [
                    14.32663750949124,
                    -7.799966888850188,
                    0
                ]
            },
            {
                "label": "C",
                "location": [
                    15.190150847871434,
                    -9.300532067822148,
                    0
                ]
            },
            {
                "label": "C",
                "location": [
                    13.459849152128568,
                    -9.305020056798138,
                    0
                ]
            },
            {
                "label": "C",
                "location": [
                    14.32882085547956,
                    -9.800033111149812,
                    0
                ]
            },
            {
                "label": "C",
                "location": [
                    16.056408950575882,
                    -7.7999924922994595,
                    0
                ],
                "selected": true
            },
            {
                "label": "C",
                "location": [
                    14.332678579685654,
                    -10.800025670104102,
                    0
                ],
                "selected": true
            }
        ],
        "bonds": [
            {
                "type": 2,
                "atoms": [
                    2,
                    0
                ]
            },
            {
                "type": 1,
                "atoms": [
                    0,
                    4
                ]
            },
            {
                "type": 2,
                "atoms": [
                    4,
                    5
                ]
            },
            {
                "type": 1,
                "atoms": [
                    5,
                    3
                ]
            },
            {
                "type": 2,
                "atoms": [
                    3,
                    1
                ]
            },
            {
                "type": 1,
                "atoms": [
                    1,
                    2
                ]
            },
            {
                "type": 1,
                "atoms": [
                    1,
                    6
                ],
                "selected": true
            },
            {
                "type": 1,
                "atoms": [
                    5,
                    7
                ],
                "selected": true
            }
        ]
    }
}]]></metadata>
<defs>
<g>
<g id="glyph-0-0">
<path d="M 1.21875 0 L 1.21875 -9.28125 L 6.5625 -9.28125 L 6.5625 0 Z M 1.890625 -0.65625 L 5.90625 -0.65625 L 5.90625 -8.625 L 1.890625 -8.625 Z M 1.890625 -0.65625 "/>
</g>
<g id="glyph-0-1">
<path d="M 5.234375 -8.390625 C 4.242188 -8.390625 3.460938 -8.054688 2.890625 -7.390625 C 2.316406 -6.722656 2.03125 -5.804688 2.03125 -4.640625 C 2.03125 -3.484375 2.296875 -2.566406 2.828125 -1.890625 C 3.359375 -1.222656 4.15625 -0.890625 5.21875 -0.890625 C 5.632812 -0.890625 6.019531 -0.925781 6.375 -1 C 6.738281 -1.070312 7.097656 -1.160156 7.453125 -1.265625 L 7.453125 -0.25 C 7.097656 -0.113281 6.738281 -0.0195312 6.375 0.03125 C 6.007812 0.09375 5.570312 0.125 5.0625 0.125 C 4.113281 0.125 3.320312 -0.0664062 2.6875 -0.453125 C 2.050781 -0.847656 1.578125 -1.40625 1.265625 -2.125 C 0.953125 -2.84375 0.796875 -3.6875 0.796875 -4.65625 C 0.796875 -5.59375 0.960938 -6.414062 1.296875 -7.125 C 1.640625 -7.84375 2.144531 -8.398438 2.8125 -8.796875 C 3.488281 -9.203125 4.300781 -9.40625 5.25 -9.40625 C 6.226562 -9.40625 7.082031 -9.222656 7.8125 -8.859375 L 7.34375 -7.875 C 7.0625 -8.007812 6.742188 -8.128906 6.390625 -8.234375 C 6.035156 -8.335938 5.648438 -8.390625 5.234375 -8.390625 Z M 5.234375 -8.390625 "/>
</g>
<g id="glyph-0-2">
<path d="M 8.359375 0 L 7.1875 0 L 7.1875 -4.328125 L 2.4375 -4.328125 L 2.4375 0 L 1.265625 0 L 1.265625 -9.28125 L 2.4375 -9.28125 L 2.4375 -5.359375 L 7.1875 -5.359375 L 7.1875 -9.28125 L 8.359375 -9.28125 Z M 8.359375 0 "/>
</g>
<g id="glyph-0-3">
<path d="M 6.40625 -7.109375 C 6.40625 -6.484375 6.234375 -5.984375 5.890625 -5.609375 C 5.546875 -5.242188 5.078125 -5.003906 4.484375 -4.890625 L 4.484375 -4.84375 C 5.234375 -4.75 5.785156 -4.507812 6.140625 -4.125 C 6.503906 -3.75 6.6875 -3.253906 6.6875 -2.640625 C 6.6875 -2.097656 6.5625 -1.617188 6.3125 -1.203125 C 6.0625 -0.785156 5.675781 -0.457031 5.15625 -0.21875 C 4.632812 0.0078125 3.960938 0.125 3.140625 0.125 C 2.648438 0.125 2.195312 0.0859375 1.78125 0.015625 C 1.363281 -0.0546875 0.960938 -0.1875 0.578125 -0.375 L 0.578125 -1.4375 C 0.972656 -1.25 1.394531 -1.097656 1.84375 -0.984375 C 2.289062 -0.878906 2.722656 -0.828125 3.140625 -0.828125 C 3.972656 -0.828125 4.570312 -0.988281 4.9375 -1.3125 C 5.3125 -1.644531 5.5 -2.097656 5.5 -2.671875 C 5.5 -3.242188 5.269531 -3.65625 4.8125 -3.90625 C 4.363281 -4.164062 3.726562 -4.296875 2.90625 -4.296875 L 2 -4.296875 L 2 -5.28125 L 2.90625 -5.28125 C 3.675781 -5.28125 4.253906 -5.4375 4.640625 -5.75 C 5.035156 -6.070312 5.234375 -6.5 5.234375 -7.03125 C 5.234375 -7.476562 5.082031 -7.828125 4.78125 -8.078125 C 4.476562 -8.328125 4.066406 -8.453125 3.546875 -8.453125 C 3.046875 -8.453125 2.617188 -8.378906 2.265625 -8.234375 C 1.910156 -8.085938 1.554688 -7.898438 1.203125 -7.671875 L 0.640625 -8.453125 C 0.960938 -8.710938 1.367188 -8.9375 1.859375 -9.125 C 2.347656 -9.3125 2.90625 -9.40625 3.53125 -9.40625 C 4.5 -9.40625 5.21875 -9.1875 5.6875 -8.75 C 6.164062 -8.320312 6.40625 -7.773438 6.40625 -7.109375 Z M 6.40625 -7.109375 "/>
</g>
</g>
</defs>
<path fill="none" stroke-width="0.05" stroke-linecap="butt" stroke-linejoin="miter" stroke="rgb(0%, 0%, 0%)" stroke-opacity="1" stroke-miterlimit="10" d="M 0.879346 -0.00717773 L -0.0125488 0.507275 " transform="matrix(40, 0, 0, 40, 3.009766, 8.642578)"/>
<path fill="none" stroke-width="0.05" stroke-linecap="butt" stroke-linejoin="miter" stroke="rgb(0%, 0%, 0%)" stroke-opacity="1" stroke-miterlimit="10" d="M 0.87915 0.166064 L 0.137451 0.593994 " transform="matrix(40, 0, 0, 40, 3.009766, 8.642578)"/>
<path fill="none" stroke-width="0.05" stroke-linecap="butt" stroke-linejoin="miter" stroke="rgb(0%, 0%, 0%)" stroke-opacity="1" stroke-miterlimit="10" d="M 0.0000488278 0.485693 L 0.0000488278 1.51958 " transform="matrix(40, 0, 0, 40, 3.009766, 8.642578)"/>
<path fill="none" stroke-width="0.05" stroke-linecap="butt" stroke-linejoin="miter" stroke="rgb(0%, 0%, 0%)" stroke-opacity="1" stroke-miterlimit="10" d="M -0.0126465 1.4979 L 0.868994 2.000049 " transform="matrix(40, 0, 0, 40, 3.009766, 8.642578)"/>
<path fill="none" stroke-width="0.05" stroke-linecap="butt" stroke-linejoin="miter" stroke="rgb(0%, 0%, 0%)" stroke-opacity="1" stroke-miterlimit="10" d="M 0.137354 1.410693 L 0.868311 1.8271 " transform="matrix(40, 0, 0, 40, 3.009766, 8.642578)"/>
<path fill="none" stroke-width="0.05" stroke-linecap="butt" stroke-linejoin="miter" stroke="rgb(0%, 0%, 0%)" stroke-opacity="1" stroke-miterlimit="10" d="M 0.856494 2.007275 L 1.742725 1.493311 " transform="matrix(40, 0, 0, 40, 3.009766, 8.642578)"/>
<path fill="none" stroke-width="0.05" stroke-linecap="butt" stroke-linejoin="miter" stroke="rgb(0%, 0%, 0%)" stroke-opacity="1" stroke-miterlimit="10" d="M 1.730322 1.51499 L 1.730322 0.499658 " transform="matrix(40, 0, 0, 40, 3.009766, 8.642578)"/>
<path fill="none" stroke-width="0.05" stroke-linecap="butt" stroke-linejoin="miter" stroke="rgb(0%, 0%, 0%)" stroke-opacity="1" stroke-miterlimit="10" d="M 1.580322 1.428564 L 1.580322 0.586084 " transform="matrix(40, 0, 0, 40, 3.009766, 8.642578)"/>
<path fill="none" stroke-width="0.05" stroke-linecap="butt" stroke-linejoin="miter" stroke="rgb(0%, 0%, 0%)" stroke-opacity="1" stroke-miterlimit="10" d="M 1.742822 0.506885 L 0.854248 -0.00727539 " transform="matrix(40, 0, 0, 40, 3.009766, 8.642578)"/>
<path fill="none" stroke-width="0.05" stroke-linecap="butt" stroke-linejoin="miter" stroke="rgb(0%, 0%, 0%)" stroke-opacity="1" stroke-miterlimit="10" d="M 1.717822 0.506885 L 2.370068 0.130615 " transform="matrix(40, 0, 0, 40, 3.009766, 8.642578)"/>
<path fill="none" stroke-width="0.05" stroke-linecap="butt" stroke-linejoin="miter" stroke="rgb(0%, 0%, 0%)" stroke-opacity="1" stroke-miterlimit="10" d="M 0.868896 1.985596 L 0.871924 2.770361 " transform="matrix(40, 0, 0, 40, 3.009766, 8.642578)"/>
<g fill="rgb(0%, 0%, 0%)" fill-opacity="1">
<use xlink:href="#glyph-0-1" x="102.570313" y="13.285156"/>
</g>
<g fill="rgb(0%, 0%, 0%)" fill-opacity="1">
<use xlink:href="#glyph-0-2" x="110.453125" y="13.15625"/>
</g>
<g fill="rgb(0%, 0%, 0%)" fill-opacity="1">
<use xlink:href="#glyph-0-3" x="119.5625" y="16.996094"/>
</g>
<g fill="rgb(0%, 0%, 0%)" fill-opacity="1">
<use xlink:href="#glyph-0-1" x="33.621094" y="133.285156"/>
</g>
<g fill="rgb(0%, 0%, 0%)" fill-opacity="1">
<use xlink:href="#glyph-0-2" x="41.503906" y="133.15625"/>
</g>
<g fill="rgb(0%, 0%, 0%)" fill-opacity="1">
<use xlink:href="#glyph-0-3" x="50.613281" y="136.996094"/>
</g>
</svg>
